<?xml version="1.0" standalone="no"?>
<!DOCTYPE svg PUBLIC "-//W3C//DTD SVG 20010904//EN"
 "http://www.w3.org/TR/2001/REC-SVG-20010904/DTD/svg10.dtd">
<svg version="1.0" xmlns="http://www.w3.org/2000/svg"
 width="734.000000pt" height="734.000000pt" viewBox="0 0 734.000000 734.000000"
 preserveAspectRatio="xMidYMid meet">
<metadata>
Created by potrace 1.11, written by Peter Selinger 2001-2013
</metadata>
<g transform="translate(0.000000,734.000000) scale(0.100000,-0.100000)"
fill="#000000" stroke="none">
<path d="M2120 6675 c0 -407 1 -435 18 -436 78 -3 1824 -1 1827 2 2 3 -51 26
-118 53 -67 26 -135 53 -152 61 -16 7 -70 30 -120 50 -49 21 -114 48 -143 61
-29 13 -55 24 -57 24 -3 0 -24 9 -48 19 -23 11 -133 60 -244 110 -318 142
-701 335 -885 444 l-78 46 0 -434z"/>
<path d="M2186 6061 c89 -394 219 -685 433 -971 78 -105 100 -129 236 -266
133 -133 274 -249 431 -355 102 -68 281 -179 289 -179 2 0 28 -14 57 -31 139
-82 751 -379 781 -379 8 0 72 29 141 64 389 200 579 343 697 524 91 138 120
258 114 457 -5 141 -9 172 -32 255 -40 142 -121 259 -263 380 -36 30 -67 58
-70 61 -3 4 -57 40 -120 82 -152 99 -316 190 -535 297 l-180 88 -992 -1 -993
0 6 -26z"/>
<path d="M2122 3755 l-1 -2080 33 125 c30 111 51 175 98 300 29 79 135 281
191 365 199 300 505 573 862 770 22 12 67 37 100 55 33 19 112 59 175 91 106
53 158 78 370 176 41 19 149 71 240 116 l165 80 -83 39 c-45 21 -83 38 -85 37
-1 0 -39 18 -85 41 -45 22 -84 40 -87 40 -12 0 -429 204 -535 263 -30 16 -75
41 -100 55 -25 13 -57 33 -72 43 -14 11 -29 19 -33 19 -8 0 -205 131 -260 173
-319 244 -537 499 -695 815 -82 164 -122 274 -189 522 -6 22 -9 -720 -9 -2045z"/>
<path d="M4291 3565 c-62 -30 -115 -55 -116 -55 -5 0 -239 -111 -375 -178
-271 -132 -565 -311 -735 -447 -366 -292 -624 -652 -773 -1076 -38 -107 -89
-283 -98 -339 -3 -14 -7 -33 -10 -42 -4 -14 1 -18 18 -18 13 -1 461 -1 997 -1
l974 -1 221 110 c377 189 588 325 741 477 100 101 145 170 186 283 34 99 40
139 44 297 4 173 -14 264 -73 380 -91 180 -262 333 -567 506 -46 26 -312 159
-317 159 -2 0 -54 -25 -117 -55z"/>
<path d="M2124 1245 c-2 -5 -3 -200 -2 -432 l3 -422 65 37 c322 187 910 467
1400 667 63 26 129 53 145 60 54 23 170 70 175 71 10 1 60 24 60 26 0 2 -415
3 -921 3 -607 0 -923 -3 -925 -10z"/>
</g>
</svg>
